<?xml version="1.0" encoding="UTF-8"?>
<!-- IQuest — iquest-stacked-dark. tools/brand.html dan (node tools/mkbrand.mjs). Boʻsh joy har tomondan 8 birlik ichida. -->
<svg xmlns="http://www.w3.org/2000/svg" viewBox="0 0 181.31 197"><defs><linearGradient id="q2g" x1="0" y1="0" x2="1" y2="1"><stop offset="0" stop-color="#2B2270"/><stop offset="1" stop-color="#14121F"/></linearGradient></defs><rect x="40.65669642857142" y="8" width="100" height="100" rx="22" fill="url(#q2g)"/><rect x="41.05669642857142" y="8.4" width="99.2" height="99.2" rx="21.6" fill="none" stroke="#F4F2FF" stroke-opacity=".14" stroke-width="0.8"/><g transform="translate(60.65669642857142 26) scale(0.6)"><rect x="8" y="21" width="16" height="58" rx="3" fill="#FFA726"/><circle cx="63" cy="50" r="21" fill="none" stroke="#FFA726" stroke-width="16"/><path d="M60 64L92 86" fill="none" stroke="#FFA726" stroke-width="15" stroke-linecap="round"/></g><path fill="#FFA726" d="M8 178L8 138L15.54 138L15.54 178L8 178ZM40.11 188.29Q37.31 188.29 35.57 186.54Q33.83 184.8 33.83 181.89L33.83 178.51Q28.8 177.71 25.48 174.63Q21.03 170.51 21.03 162.8L21.03 153.2Q21.03 145.49 25.48 141.34Q29.94 137.2 37.48 137.2Q45.03 137.2 49.48 141.34Q53.94 145.49 53.94 153.2L53.94 162.8Q53.94 170.51 49.48 174.63Q46.17 177.71 41.14 178.51L41.14 180.74Q41.14 182.46 42.74 182.46L46.11 182.46L46.11 188.29L40.11 188.29ZM37.48 172.06Q41.71 172.06 44.06 169.6Q46.4 167.14 46.4 163.03L46.4 152.97Q46.4 148.86 44.06 146.4Q41.71 143.94 37.48 143.94Q33.31 143.94 30.94 146.4Q28.57 148.86 28.57 152.97L28.57 163.03Q28.57 167.14 30.94 169.6Q33.31 172.06 37.48 172.06Z"/><path fill="#F4F2FF" d="M70.46 178.46Q67.14 178.46 64.66 176.94Q62.17 175.43 60.8 172.74Q59.43 170.06 59.43 166.57L59.43 149.66L66.63 149.66L66.63 166Q66.63 169.2 68.2 170.8Q69.77 172.4 72.68 172.4Q76 172.4 77.83 170.2Q79.66 168 79.66 164.06L79.66 149.66L86.86 149.66L86.86 178L79.77 178L79.77 174.29L78.74 174.29Q78.06 175.71 76.17 177.09Q74.28 178.46 70.46 178.46ZM106.63 178.8Q102.4 178.8 99.17 177Q95.94 175.2 94.14 171.91Q92.34 168.63 92.34 164.17L92.34 163.49Q92.34 159.03 94.11 155.74Q95.88 152.46 99.08 150.66Q102.28 148.86 106.51 148.86Q110.68 148.86 113.77 150.71Q116.86 152.57 118.57 155.86Q120.28 159.14 120.28 163.49L120.28 165.94L99.66 165.94Q99.77 168.86 101.83 170.69Q103.88 172.51 106.86 172.51Q109.88 172.51 111.31 171.2Q112.74 169.89 113.48 168.29L119.37 171.37Q118.57 172.86 117.06 174.6Q115.54 176.34 113.03 177.57Q110.51 178.8 106.63 178.8ZM99.71 160.57L112.97 160.57Q112.74 158.11 111 156.63Q109.26 155.14 106.46 155.14Q103.54 155.14 101.83 156.63Q100.11 158.11 99.71 160.57ZM137.31 178.8Q131.77 178.8 128.23 176.4Q124.68 174 123.94 169.54L130.57 167.83Q130.97 169.83 131.91 170.97Q132.86 172.11 134.26 172.6Q135.66 173.09 137.31 173.09Q139.83 173.09 141.03 172.2Q142.23 171.31 142.23 170Q142.23 168.69 141.08 167.97Q139.94 167.26 137.43 166.8L135.83 166.51Q132.86 165.94 130.4 164.94Q127.94 163.94 126.46 162.17Q124.97 160.4 124.97 157.6Q124.97 153.37 128.06 151.11Q131.14 148.86 136.17 148.86Q140.91 148.86 144.06 150.97Q147.2 153.09 148.17 156.51L141.48 158.57Q141.03 156.4 139.63 155.49Q138.23 154.57 136.17 154.57Q134.11 154.57 133.03 155.29Q131.94 156 131.94 157.26Q131.94 158.63 133.08 159.29Q134.23 159.94 136.17 160.29L137.77 160.57Q140.97 161.14 143.57 162.09Q146.17 163.03 147.68 164.77Q149.2 166.51 149.2 169.49Q149.2 173.94 145.97 176.37Q142.74 178.8 137.31 178.8ZM164.63 178Q161.83 178 160.08 176.26Q158.34 174.51 158.34 171.6L158.34 155.6L151.26 155.6L151.26 149.66L158.34 149.66L158.34 140.86L165.54 140.86L165.54 149.66L173.31 149.66L173.31 155.6L165.54 155.6L165.54 170.34Q165.54 172.06 167.14 172.06L172.63 172.06L172.63 178L164.63 178Z"/></svg>
